<?xml version="1.0" standalone="no"?>
<!DOCTYPE svg PUBLIC "-//W3C//DTD SVG 20010904//EN"
 "http://www.w3.org/TR/2001/REC-SVG-20010904/DTD/svg10.dtd">
<svg version="1.0" xmlns="http://www.w3.org/2000/svg"
 width="50.000000pt" height="50.000000pt" viewBox="0 0 50.000000 50.000000"
 preserveAspectRatio="xMidYMid meet">

<g transform="translate(0.000000,50.000000) scale(0.100000,-0.100000)"
fill="#000000" stroke="none">
<path d="M152 428 c-23 -18 -45 -41 -48 -53 -4 -11 -13 -25 -21 -30 -9 -7 -19
-43 -25 -94 -9 -78 -8 -86 11 -112 12 -15 21 -33 21 -39 0 -13 101 -60 129
-60 17 0 21 6 21 30 0 25 -4 30 -24 30 -13 0 -29 7 -36 15 -11 13 -14 13 -26
-2 -10 -15 -15 -16 -26 -5 -11 11 -10 16 5 26 21 16 22 30 2 46 -10 8 -12 17
-6 23 13 13 26 3 45 -38 13 -26 23 -35 41 -35 22 0 25 4 25 40 0 32 -4 40 -18
40 -10 0 -29 11 -42 26 -18 18 -33 24 -55 22 -21 -2 -30 1 -30 12 0 24 65 13
96 -16 35 -33 49 -30 49 11 0 31 -3 35 -25 35 -18 0 -25 5 -25 18 0 11 -9 27
-20 37 -20 18 -27 45 -12 45 10 0 52 -56 52 -70 0 -5 7 -10 15 -10 12 0 15 14
15 70 0 67 -1 70 -23 70 -13 0 -42 -14 -65 -32z"/>
<path d="M260 432 c0 -47 59 -84 74 -47 8 22 26 18 26 -5 0 -11 -5 -20 -12
-20 -6 0 -4 -8 6 -19 13 -14 14 -21 5 -27 -7 -4 -17 -1 -23 7 -6 8 -26 19 -43
26 l-33 11 0 -49 c0 -41 3 -49 19 -49 10 0 24 7 31 15 17 21 64 19 84 -4 22
-25 2 -40 -23 -17 -22 20 -35 20 -51 1 -7 -8 -23 -15 -36 -15 -21 0 -24 -5
-24 -40 0 -47 15 -52 50 -15 25 27 96 37 87 13 -2 -7 -13 -13 -24 -13 -29 0
-38 -12 -24 -29 14 -17 11 -57 -4 -57 -5 0 -11 12 -13 26 -3 26 -16 33 -27 15
-3 -6 -15 -10 -26 -10 -16 0 -19 -7 -19 -45 0 -39 3 -45 21 -45 28 0 129 47
129 60 0 6 9 24 21 39 19 26 20 34 11 112 -6 51 -16 87 -25 94 -8 5 -17 19
-21 30 -8 28 -84 85 -113 85 -19 0 -23 -5 -23 -28z"/>
</g>
</svg>
